<svg xmlns="http://www.w3.org/2000/svg" width="24" height="24" viewBox="0 0 24 24" fill="none">
    <path d="M16.9503 12.9698L4.07409 6.97923C3.70061 6.80547 3.25708 6.96719 3.08343 7.34043C2.90978 7.71368 3.07177 8.15712 3.44524 8.33087L16.3214 14.3215C16.6949 14.4952 17.1385 14.3335 17.3121 13.9603C17.4858 13.587 17.3238 13.1436 16.9503 12.9698Z" fill="#9DA5B6"/>
    <path d="M17.002 10.611L4.07459 16.6252C3.70111 16.7989 3.25758 16.6372 3.08393 16.2639C2.91029 15.8907 3.07229 15.4472 3.44577 15.2735L16.3731 9.25938C16.7466 9.08563 17.1901 9.24735 17.3638 9.6206C17.5374 9.99385 17.3754 10.4373 17.002 10.611Z" fill="#9DA5B6"/>
    <path d="M19.8923 16.9698C19.8923 17.8194 19.5548 18.6341 18.9541 19.2348C18.3535 19.8355 17.5387 20.1729 16.6892 20.1729C15.8397 20.1729 15.025 19.8355 14.4243 19.2348C13.8236 18.6341 13.4862 17.8194 13.4862 16.9698C13.4862 16.1203 13.8236 15.3056 14.4243 14.7049C15.025 14.1042 15.8397 13.7668 16.6892 13.7668C17.5387 13.7668 18.3535 14.1042 18.9541 14.7049C19.5548 15.3056 19.8923 16.1203 19.8923 16.9698ZM19.8923 6.66462C19.8923 7.51413 19.5548 8.32884 18.9541 8.92953C18.3535 9.53023 17.5387 9.86769 16.6892 9.86769C15.8397 9.86769 15.025 9.53023 14.4243 8.92953C13.8236 8.32884 13.4862 7.51413 13.4862 6.66462C13.4862 5.81511 13.8236 5.00039 14.4243 4.3997C15.025 3.79901 15.8397 3.46154 16.6892 3.46154C17.5387 3.46154 18.3535 3.79901 18.9541 4.3997C19.5548 5.00039 19.8923 5.81511 19.8923 6.66462Z" stroke="#9DA5B6" stroke-width="1.5"/>
</svg>
