<svg xmlns="http://www.w3.org/2000/svg" width="40" height="40" viewBox="0 0 40 40" fill="none">
    <path d="M28 13H12C11.4477 13 11 13.4477 11 14C11 14.5523 11.4477 15 12 15H28C28.5523 15 29 14.5523 29 14C29 13.4477 28.5523 13 28 13Z" fill="#DFE2EA"/>
    <path d="M28 19H12C11.4477 19 11 19.4477 11 20C11 20.5523 11.4477 21 12 21H28C28.5523 21 29 20.5523 29 20C29 19.4477 28.5523 19 28 19Z" fill="#DFE2EA"/>
    <path d="M28 25H12C11.4477 25 11 25.4477 11 26C11 26.5523 11.4477 27 12 27H28C28.5523 27 29 26.5523 29 26C29 25.4477 28.5523 25 28 25Z" fill="#DFE2EA"/>
</svg>
