<svg xmlns="http://www.w3.org/2000/svg" width="24" height="24" viewBox="0 0 24 24" fill="none">
    <path fill="#9DA5B6" d="M21.7948 6.57146C21.9733 6.7018 22.0789 6.90957 22.0789 7.13064V16.594C22.0789 16.815 21.9733 17.0227 21.7948 17.1532C21.6162 17.2835 21.3861 17.3207 21.1756 17.2533L17.1428 15.9629C16.8561 15.8711 16.6615 15.6045 16.6615 15.3035V8.42109C16.6615 8.12002 16.8561 7.85347 17.1428 7.76172L21.1756 6.47127C21.3861 6.40389 21.6162 6.44112 21.7948 6.57146ZM18.0462 8.92645V14.7981L20.6943 15.6455V8.07906L18.0462 8.92645Z"/>
    <path d="M9.22237 9.89206L12.4951 11.7816L9.22237 13.671V9.89206ZM9.05872 13.7656C9.05865 13.7657 9.05879 13.7655 9.05872 13.7656V13.7656Z" fill="#9DA5B6" stroke="#9DA5B6" stroke-width="1.5"/>
    <path d="M13.5861 4.51048H7.04056C5.01294 4.51048 3.36923 6.15418 3.36923 8.1818V15.4909C3.36923 17.5185 5.01294 19.1622 7.04056 19.1622H13.5861C15.6137 19.1622 17.2574 17.5185 17.2574 15.4909V8.1818C17.2574 6.15418 15.6137 4.51048 13.5861 4.51048Z" stroke="#9DA5B6" stroke-width="1.5"/>
</svg>
